<?xml version="1.0" standalone="no"?>
<!DOCTYPE svg PUBLIC "-//W3C//DTD SVG 20010904//EN"
 "http://www.w3.org/TR/2001/REC-SVG-20010904/DTD/svg10.dtd">
<svg version="1.0" xmlns="http://www.w3.org/2000/svg"
 width="2000.000000pt" height="1500.000000pt" viewBox="0 0 2000.000000 1500.000000"
 preserveAspectRatio="xMidYMid meet">

<g transform="translate(0.000000,1500.000000) scale(0.100000,-0.100000)"
fill="#000000" stroke="none">
<path d="M14170 9311 c-86 -27 -173 -99 -212 -179 -19 -39 -23 -63 -23 -142 0
-79 4 -103 23 -142 51 -104 159 -178 273 -186 139 -10 254 56 319 182 31 61
35 77 35 146 0 69 -4 85 -35 146 -61 119 -169 185 -299 183 -31 0 -67 -4 -81
-8z"/>
<path d="M15060 7805 l0 -1385 280 0 280 0 0 1385 0 1385 -280 0 -280 0 0
-1385z"/>
<path d="M3680 9090 c-319 -44 -557 -158 -771 -370 -187 -186 -292 -381 -351
-652 -29 -137 -36 -427 -13 -573 57 -370 251 -671 566 -881 292 -195 671 -263
1094 -197 117 18 204 43 298 85 l67 31 0 294 0 294 -42 -26 c-278 -171 -690
-204 -951 -74 -159 79 -285 215 -350 379 -43 110 -60 226 -54 380 9 251 70
404 222 555 134 134 247 191 425 215 201 27 497 -31 686 -135 l64 -35 0 290 0
289 -62 30 c-83 39 -181 68 -292 87 -107 18 -441 27 -536 14z"/>
<path d="M9810 8220 c0 -526 4 -888 10 -948 28 -252 110 -438 262 -591 142
-143 329 -236 558 -277 114 -20 377 -20 495 1 415 72 690 316 784 697 38 151
41 240 41 1116 l0 852 -300 0 -300 0 0 -854 c0 -907 -2 -940 -48 -1046 -66
-150 -188 -226 -383 -237 -265 -16 -419 75 -493 290 -21 61 -21 74 -24 955
l-3 892 -299 0 -300 0 0 -850z"/>
<path d="M12530 8645 l0 -235 -145 0 -145 0 0 -205 0 -204 143 -3 142 -3 5
-550 c7 -609 6 -599 75 -741 68 -139 195 -233 371 -275 151 -36 403 -28 562
17 l52 15 0 235 0 234 -40 -20 c-99 -51 -259 -66 -335 -31 -52 23 -102 81
-112 128 -4 21 -8 252 -8 513 l0 475 233 3 232 2 0 205 0 205 -232 2 -233 3
-3 233 -2 232 -280 0 -280 0 0 -235z"/>
<path d="M6010 8414 c-108 -23 -225 -87 -306 -168 -38 -39 -82 -87 -97 -106
l-26 -35 -1 153 0 152 -285 0 -285 0 0 -1360 0 -1360 285 0 285 0 0 513 1 512
26 -35 c61 -80 160 -166 234 -202 99 -49 173 -67 299 -74 309 -18 551 104 718
359 119 182 172 387 172 662 0 351 -86 594 -280 785 -114 112 -234 176 -386
206 -94 18 -268 17 -354 -2z m193 -488 c113 -54 198 -169 234 -313 23 -95 23
-307 0 -391 -66 -244 -248 -377 -470 -342 -244 38 -400 279 -383 595 8 165 52
272 148 363 99 95 175 124 313 119 85 -3 109 -7 158 -31z"/>
<path d="M8410 8414 c-108 -23 -225 -87 -306 -168 -38 -39 -82 -87 -97 -106
l-26 -35 -1 153 0 152 -285 0 -285 0 0 -1360 0 -1360 285 0 285 0 0 513 1 512
26 -35 c95 -125 228 -217 368 -255 148 -39 370 -27 519 29 264 100 461 374
520 725 21 122 21 365 1 491 -65 400 -310 680 -651 746 -94 18 -268 17 -354
-2z m193 -488 c112 -54 193 -161 233 -307 24 -89 25 -310 1 -397 -66 -244
-248 -377 -470 -342 -244 38 -400 280 -383 595 8 160 43 251 130 343 102 109
185 144 331 139 85 -3 109 -7 158 -31z"/>
<path d="M16663 8416 c-163 -31 -303 -98 -404 -193 -113 -107 -162 -228 -163
-398 0 -171 61 -315 180 -424 77 -70 142 -109 286 -172 183 -81 253 -118 289
-155 30 -31 34 -41 34 -89 0 -64 -24 -95 -91 -121 -59 -23 -258 -15 -367 14
-79 22 -207 79 -284 127 l-43 26 0 -251 0 -251 56 -25 c213 -94 600 -122 835
-61 254 66 416 213 465 424 22 94 15 267 -14 341 -56 144 -185 253 -452 384
-242 119 -284 147 -305 203 -14 36 -15 50 -5 79 17 52 68 92 136 106 125 26
370 -17 512 -89 l42 -22 -2 243 -3 243 -40 13 c-119 40 -212 53 -400 57 -135
3 -211 1 -262 -9z"/>
<path d="M13970 7415 l0 -995 285 0 285 0 0 995 0 995 -285 0 -285 0 0 -995z"/>
</g>
</svg>
